<svg xmlns="http://www.w3.org/2000/svg" viewBox="0 0 696.21 263.35"><g id="Layer_2" data-name="Layer 2"><g id="Layer_1-2" data-name="Layer 1"><path d="M4.81,146.09c-.87-2.92-2.19-14.17-2.77-23.67C.72,101.54-.59,30.4.28,27.92c1.17-2.78,1.46-2.78,24.4-7.6,15.48-3.21,25.12-4.68,30.53-4.68,2.33,0,3.8.15,4.82.74A6.39,6.39,0,0,1,63.1,23c-.59,3.65-1.76,4.09-20.31,7.74-20.74,4.09-22.35,4.38-24.69,6.87l-1.89,1.75.43,17.23c.44,18.7.59,19.58,3.36,19.58a60.65,60.65,0,0,0,8.48-2.48C33.59,71.88,37.39,71,40.16,71a9.74,9.74,0,0,1,3.8.73,5.79,5.79,0,0,1,3.21,7.74c-.87,2.34-2.48,3.07-14.6,7.59-11.69,4.39-13.15,5.12-14.32,7.31-.73,1.46-.88,2.92-.58,12.71.43,11.54,1.31,23.66,1.9,26.29A6.41,6.41,0,0,0,21.32,136l1.46,1,7.3-2.34c5.7-1.75,9.79-2.63,12.71-2.63,3.36,0,5.41,1.17,6.72,3.36a5.1,5.1,0,0,1,.29,5.7c-1,1.9-2.19,2.48-16.94,7.45-11.54,4.09-12.71,4.24-16.65,4.24a27.1,27.1,0,0,1-6-.59C8.17,151.64,5.4,148.72,4.81,146.09Z"/><path d="M151.32,151.05c-.88-1.46-1-6.57-1.61-46.3-.43-26.44-.87-45.14-1.16-46-.73-1.9-2.05-1.61-3.51.73-.73.87-2.77,5.11-4.53,9.2-9.2,21.18-10.22,22.49-17.67,22.49-6.28,0-5.85.44-15.92-19.72C98.44,54.5,96.4,51,94.79,51c-1.31,0-1.31,2.49-.73,16.36,1.75,42.07,2.19,78.59.88,81.22-1,1.9-3.36,2.92-6.72,2.92-3.51,0-5.55-1-6.72-3.36-1-2-1.17-5-2.34-48.79-.58-22.2-1-32-2.48-58.42-1.17-22.5-1.17-24.25,0-25.71C78.29,13.6,80,13,83.69,13a12.2,12.2,0,0,1,9.49,3.79c3.8,3.66,5.41,6.28,20,33.89,3.65,6.72,7.15,12.86,7.88,13.59,1.76,1.9,2.63,1.17,5.12-3.8,1-2.05,4.82-9.79,8.47-17,7.6-15.62,9.79-19.28,12.42-20.45,5.11-2.48,13.73.3,16.21,5.26.44.73.88,3.36,1.17,6,.58,5.26,1.9,89.11,1.6,104.88-.29,11-.43,12.13-3.35,13.88-1.32.88-4.83,1.31-6.43,1C153.66,153.54,152.05,152.66,151.32,151.05Z"/><path d="M249.48,33.47c0,7-1.17,11.68-5.26,21.32-4.67,10.81-16.5,30.68-29.36,49.37-3.65,5.26-6.86,10.52-7.16,11.69-.43,1.32-.58,8.91-.43,21.91l.14,19.87L206,159.09c-1.46,1.6-4.82,2.33-7.89,1.75-4.38-.73-6-3.21-6.57-10.08-.29-2.19-.44-26.44-.58-53.9-.15-27.61-.44-54.78-.73-60.77-.88-16.21-.88-21.47-.15-22.78.88-1.61,3.07-2.63,6-3.07,1.31-.29,5.4-1,9-1.75A56.9,56.9,0,0,1,219.68,7C236.63,7,249.48,15.06,249.48,33.47Zm-42.36-9.79c-1,1.46-1,2.48-.44,17.53.15,4.38.44,44.26,2.92,41.77,2.78-2.48,13.44-21.91,18.12-30.67C249.48,11.55,210.33,18,207.12,23.68Z"/><path d="M284.39,146.53c-1-2.49-1.61-23.52-2.19-74.06-.44-24.4-.73-39.88-1-40.76-1.32-3.36-2.49-3.36-9.94,0-7.15,3.36-12.85,2.92-15.33-1.17a7.77,7.77,0,0,1,0-7.59c1.16-2.19,3.21-2.92,22.2-9.5C320.32-1.15,333-3.2,335.81,4.11c.87,2.33.58,4.23-1,5.69-.58.59-3.79,1.61-7.74,2.63-8.47,2.05-23.22,6.72-25.85,8.18-3.51,2.05-3.8,3.07-3.07,16.36.29,6.28.58,22.2.58,35.06s.3,34.18.73,47.47c.74,22.94.59,26.3-.73,28.78-1,2-5.55,3.21-9.34,2.48A6.9,6.9,0,0,1,284.39,146.53Z"/><path d="M341.36,153.83c-.88-1.9-.88-2.05.87-8.91,2.49-9.79,9.06-32.87,11.83-41.63,2.93-9.06,3.22-10.23,2.49-12.71-.29-1-3.8-6.87-7.74-13C334.05,55.08,323,37.7,322.66,36.39c-.88-3.51,2.77-6,7.3-6a11.39,11.39,0,0,1,5.26,1.17c2.48,1.31,2.92,1.9,18.11,24.1,7,10.22,9.35,13.29,10.81,13.29a2,2,0,0,0,1.32-.73c.44-.44,4.09-9.35,7.89-19.87,7.45-20,13-34,15-38.27,1.9-3.79,3.95-5.25,7.6-5.25,5.55,0,8.76,3.35,7.45,7.74-.3,1.17-3.07,8.32-6,15.92a857.54,857.54,0,0,0-36.08,108c-3.8,14.9-5.11,18.4-7.45,20a11.13,11.13,0,0,1-7.45,1C343.69,156.9,342.38,156,341.36,153.83Z"/><path d="M455.29,151.2c-1.17-2.48-1.32-3.36-2.48-32.87-1-23.22-1.32-39-1.32-67.19-.14-36.23-.14-37.1.88-38.12,1.17-1.17,3.21-1.61,5.4-1.61a10.37,10.37,0,0,1,5.7,1.46c3.94,2.48,4.09,5.11,4.24,48.79.14,21,.29,42.07,1.75,63,.44,9.06,1,11.25,3.36,11.25.73,0,4.23-1.31,7.74-3.07,12.42-5.84,16.65-7,21.47-6.13,3.36.73,5.7,3.21,5.7,5.84s-1,3.95-4.09,5.41c-1.32.58-10.08,4.82-19.57,9.35-16.51,7.88-17.53,8.32-20.6,8.32C459.82,155.58,457,154.71,455.29,151.2Z"/><path d="M518.54,140.68c-1-7.89-.44-36.66,1.46-89.69.88-22,1-22.64,3.94-23.66a14.63,14.63,0,0,1,8.18.88c4.39,2.19,5,5.84,3.65,26.73-1.16,19.57-2.19,55.94-2.19,79.75,0,5.26-.14,10.38-.44,11.11-1,3.21-8,4.23-11.39,1.75C520.14,146.38,518.83,143.6,518.54,140.68Z"/><path d="M568.93,145.36c.29-1.17,2.34-3.22,6.43-6.87C590,126.08,605.45,106.79,605.45,98c0-15.78-41.34-17.09-51.56-39-4.53-9.64-1.76-19.72,8.47-30.38,8.47-8.77,19.13-15.93,31.7-15.93,3.21,0,6.28.44,8.18,1.76,8.61,6.13-2.19,12.27-8.33,13.29C585.58,29.23,572,41.5,568.49,49.1c-8.61,18,51.42,13.87,51.28,52-.15,7.74-2,13-8.77,23.22-4.67,7-23.81,31.55-33.3,31.55a9.89,9.89,0,0,1-4.39-1.16C569.66,153,567.76,148.72,568.93,145.36Z"/><path d="M644.31,146.53c-1-2.49-1.61-23.52-2.19-74.06-.44-24.4-.73-39.88-1-40.76-1.31-3.36-2.48-3.36-9.93,0-7.16,3.36-12.85,2.92-15.34-1.17a7.82,7.82,0,0,1,0-7.59C617,20.76,619,20,638,13.45,680.24-1.15,693-3.2,695.72,4.11c.88,2.33.59,4.23-1,5.69-.58.59-3.8,1.61-7.74,2.63-8.47,2.05-23.23,6.72-25.85,8.18-3.51,2.05-3.8,3.07-3.07,16.36.29,6.28.58,22.2.58,35.06s.29,34.18.73,47.47c.73,22.94.59,26.3-.73,28.78-1,2-5.55,3.21-9.35,2.48A6.9,6.9,0,0,1,644.31,146.53Z"/><path d="M260.06,200.66q55.8-5.67,111.79-9,55.69-3.3,111.49-4.27,31.59-.55,63.19-.34l-1.19-8.84-73,13.09-72.95,13.1-41.12,7.38a4.52,4.52,0,0,0-3.31,4.34,4.73,4.73,0,0,0,3.31,4.34c22.44,7.92,46.42,10.06,70.05,10.84,6.67.22,13.35.33,20,.44l-2.27-8.38a75.86,75.86,0,0,0-27.32,34.32c-.88,2.19.95,5,3.14,5.53,2.6.6,4.59-.79,5.54-3.14,0,0,.53-1.3.24-.61.15-.35.3-.7.46-1,.34-.76.7-1.51,1.07-2.27q1.11-2.25,2.38-4.41t2.56-4c.48-.69,1-1.37,1.46-2,.22-.31.45-.61.68-.92s.19-.24,0,0l.42-.53a70.91,70.91,0,0,1,6.66-7.2q1.83-1.71,3.78-3.3l.89-.71a2.66,2.66,0,0,1,.35-.27c.74-.54,1.48-1.07,2.23-1.59a4.5,4.5,0,0,0-2.27-8.39c-23.16-.38-46.45-.75-68.82-5.63a156.44,156.44,0,0,1-18.87-5.33v8.68l73-13.1,72.95-13.09,41.12-7.39c2.2-.39,3.5-2.9,3.22-4.93a4.48,4.48,0,0,0-4.42-3.9q-56.07-.36-112.13,1.64-55.75,2-111.4,6.32-31.5,2.44-62.94,5.65c-2.33.24-4.61,1.9-4.5,4.5.1,2.24,2,4.76,4.5,4.5Z"/></g></g></svg>