<svg xmlns="http://www.w3.org/2000/svg" viewBox="0 0 238.84 224.46"><defs><style>.cls-1{fill:#f2f2f2;}.cls-2{opacity:0.4;}.cls-3{fill:none;stroke:#999;stroke-miterlimit:10;stroke-width:0.5px;}</style></defs><g id="Layer_2" data-name="Layer 2"><g id="Layer_1-2" data-name="Layer 1"><path class="cls-1" d="M1.15,136.1c0,3.94-2.59,88.59,0,88.36s38.35,0,38.35,0L43.58,165Z"/><path class="cls-1" d="M238.84,224.46H35.54c-2.4-6-4.65-11.79-6.54-16.75,0-2.71,0-5.48,0-8.19a19.79,19.79,0,0,0,11.56-1.44c15.1-6.49,23.74-13.16,30.53-15.53s12.61-2.27,11.27-7-9.37-12.88-13-10.1-35.53,16.19-41.89,9.69a.51.51,0,0,0-.18-.18C21.42,168,37.7,165,40.81,161s32.34-14.48,35.32-22.53-9.64-25.88-12-22.3-30.19,33.08-43.83,33.27c-10.3.15-16.76-3.64-19.1-9.38V1.63L211.54,0Z"/><path class="cls-1" d="M7.07,134.79s14.41,62,15.38,64.59,11.94,11.24,12.71,11.24,38.72-8.43,48.47-13.28,25.94,16.93,25.25-15.28,6.31-29.91,0-49.06.72-22-9.18-27.32,3.12-10.21-20.12-9.44-32.17-6.9-41.87,5.87S7.07,134.79,7.07,134.79Z"/><g class="cls-2"><line class="cls-3" x1="22.45" y1="18.13" x2="195.3" y2="16.46"/><line class="cls-3" x1="22.45" y1="39.23" x2="195.3" y2="37.56"/><line class="cls-3" x1="22.45" y1="60.32" x2="195.3" y2="58.66"/><line class="cls-3" x1="22.45" y1="81.42" x2="195.3" y2="79.75"/><line class="cls-3" x1="22.45" y1="102.51" x2="195.3" y2="100.85"/><line class="cls-3" x1="22.45" y1="123.61" x2="195.3" y2="121.95"/><line class="cls-3" x1="22.45" y1="144.71" x2="195.3" y2="143.04"/><line class="cls-3" x1="22.45" y1="165.8" x2="195.3" y2="164.14"/><line class="cls-3" x1="22.45" y1="186.57" x2="203.73" y2="185.57"/><line class="cls-3" x1="22.45" y1="208" x2="210.87" y2="206.33"/></g><path d="M21.68,86.08c-.31-.68-.35-.91-.67-8.89-.27-6.27-.35-10.54-.35-18.15,0-9.79,0-10,.23-10.31a2.12,2.12,0,0,1,1.46-.43,2.82,2.82,0,0,1,1.54.39C25,49.36,25,50.08,25,61.88c0,5.68.08,11.37.47,17,.12,2.45.28,3,.91,3a9.15,9.15,0,0,0,2.09-.83c3.36-1.58,4.5-1.89,5.8-1.66A1.79,1.79,0,0,1,35.85,81c0,.71-.27,1.07-1.1,1.46-.36.16-2.73,1.31-5.29,2.53-4.46,2.13-4.74,2.25-5.57,2.25A2.16,2.16,0,0,1,21.68,86.08Z"/><path d="M54.44,82.21a2,2,0,0,1-1.54.55,2.29,2.29,0,0,1-1.73-.63c-.44-.51-.56-.87-1.23-4.34-.51-2.85-.75-3.32-1.42-3.4a20.24,20.24,0,0,0-4.66,1.54,2,2,0,0,0-.67.71,33.33,33.33,0,0,0-.83,5c-.27,2.49-.59,4.66-.63,4.78a1.67,1.67,0,0,1-.51.63c-.4.32-.59.36-1.42.36a2.37,2.37,0,0,1-1.38-.28c-.79-.51-1-1.22-.79-3,.63-6,2.21-16.81,3.19-22,.87-4.73,2.41-10.85,3-12.11.44-.95,1.38-1.31,2.88-1.07a4.06,4.06,0,0,1,2.53,1.3c.71,1.07,1.38,4,2.41,11,.91,6.08,2.49,15.94,2.84,17.8C54.88,81.1,54.88,81.73,54.44,82.21ZM48.28,69c0-1-1.26-9.27-1.5-9.87-.11-.31-.23-.47-.39-.47-.47,0-1,2.21-1.9,7.58-.75,4.38-.75,4.46-.47,4.9a.61.61,0,0,0,.55.31A5,5,0,0,0,46.19,71C47.85,70.44,48.28,70,48.28,69Z"/><path d="M60.52,83.23c-.28-2.13-.12-9.9.39-24.23.24-6,.28-6.12,1.07-6.4a3.92,3.92,0,0,1,2.21.24c1.18.59,1.34,1.58,1,7.22-.32,5.29-.6,15.12-.6,21.56a23.81,23.81,0,0,1-.11,3c-.28.86-2.18,1.14-3.08.47A2.75,2.75,0,0,1,60.52,83.23Z"/><path d="M72.4,87.1c0-.35,0-4.22.08-8.6.11-8,0-16.11-.4-21.83-.16-3.16-.12-3.52.63-3.91a2.82,2.82,0,0,1,1.42-.28,3,3,0,0,1,1.11.16c1.07.4,2,1.78,4.54,6.4s5.45,9.79,5.92,10.26.43.39.63.16c.67-.67,1-13.23,1-14.81,0-2.21.12-2.8.75-3.15a2.52,2.52,0,0,1,1.22-.32,2.7,2.7,0,0,1,2.37,1.18c.2.44.24.79.12,3.36-.08,1.58-.2,4.78-.28,7.07-.39,9.59-.75,14.8-1.1,15.51a2.07,2.07,0,0,1-2,1,2.37,2.37,0,0,1-1.93-.75c-.51-.64-3.83-6-6.16-10.07C79,66.3,77.92,64.4,77.81,64.29c-.28-.32-.72-.36-.83,0,0,.12-.08,2.44-.08,5.13,0,5.45-.24,13.3-.44,15.83s-.67,3.19-2.21,3.27c-.87.08-1,0-1.42-.35A1.15,1.15,0,0,1,72.4,87.1Z"/><path d="M97.06,74.59c-.27-6.83,1.74-15.59,4.82-21a8.38,8.38,0,0,1,3.47-3.48,6.44,6.44,0,0,1,3.64,0,5.41,5.41,0,0,1,3,3.2,17.79,17.79,0,0,1,1,5c0,.83,0,1-.35,1.31s-.52.35-1.19.35c-1.62,0-2.37-.71-2.64-2.48-.36-2.21-.63-3.32-1-3.71s-.36-.36-.71-.2c-1.26.59-4,7.3-5,12.12a32.12,32.12,0,0,0-.79,8.09c0,3.75.08,4.85.94,7.26,2.57,7.23,5,.83,6.28-3.23.63-1.94,1-2.57-.63-2.37-2.21.27-2.73.27-3.2,0a2.18,2.18,0,0,1-1-1.94c.24-.95,1-1.3,4.39-2.09,4.46-1,5.88-1,6.43.43.32.71.28,1.15-.28,2.49-.27.67-.9,2.57-1.46,4.19-1.06,3.31-1.85,5.13-2.84,6.43a6.65,6.65,0,0,1-2.8,2.13,9.63,9.63,0,0,1-3.59.24C99.75,86.79,97.38,82.21,97.06,74.59Z"/><path d="M135.55,82.21a2,2,0,0,1-1.54.55,2.33,2.33,0,0,1-1.74-.63c-.43-.51-.55-.87-1.22-4.34-.52-2.85-.75-3.32-1.42-3.4A20.09,20.09,0,0,0,125,75.93a1.81,1.81,0,0,0-.67.71,31.94,31.94,0,0,0-.83,5c-.28,2.49-.59,4.66-.63,4.78a1.72,1.72,0,0,1-.52.63c-.39.32-.59.36-1.42.36a2.39,2.39,0,0,1-1.38-.28c-.79-.51-1-1.22-.79-3,.63-6,2.21-16.81,3.2-22,.87-4.73,2.41-10.85,3-12.11.43-.95,1.38-1.31,2.88-1.07a4.12,4.12,0,0,1,2.53,1.3c.71,1.07,1.38,4,2.4,11,.91,6.08,2.49,15.94,2.85,17.8C136,81.1,136,81.73,135.55,82.21ZM129.39,69c0-1-1.26-9.27-1.5-9.87-.12-.31-.24-.47-.4-.47-.47,0-1,2.21-1.89,7.58-.75,4.38-.75,4.46-.47,4.9a.59.59,0,0,0,.55.31A5,5,0,0,0,127.3,71C129,70.44,129.39,70,129.39,69Z"/><path d="M155.87,77.71a2.94,2.94,0,0,1-1.81,0,10,10,0,0,1-1.23-1c-2.37-2-5.6-4.46-6-4.46a.6.6,0,0,0-.43.24c-.28.27-.32,3.94,0,11,.16,5.37.16,5.37-.71,5.76a3.56,3.56,0,0,1-2.41,0c-.91-.51-1-1.3-1.22-9.35-.08-3.24-.2-7.23-.24-8.84s-.12-3.44-.12-4,0-4.66-.12-9.16c-.12-8.92-.12-8.8.75-9.36a15.18,15.18,0,0,1,4.11-1c4.1-.55,8.45.67,9.43,5.21a9.79,9.79,0,0,1-1.54,7,24.7,24.7,0,0,1-4.06,5c-2.84,2.88-2.84,2.76.19,5,3.87,2.88,5.81,4.66,6.12,5.49A2,2,0,0,1,155.87,77.71Zm-5-20.13c4-6.72-3.12-8-4.66-5.81l-.31.52,0,4.69c0,4.94.08,5.17.72,5.17a2.34,2.34,0,0,0,.9-.59A23.76,23.76,0,0,0,150.86,57.58Z"/><path d="M174.22,76c-1.81,3.75-4.46,7-6.59,8.13a10.71,10.71,0,0,1-5.09,1.19,1.57,1.57,0,0,1-1.38-1c-.24-.47-.28-1-.36-5.57,0-6.23.24-25.77.44-27s.51-1.46,1.73-1.58c5.93-.55,11.21-.79,13.86,6C178.61,60.89,177.54,69.22,174.22,76Zm-.63-16.74c-.35-5.68-7.5-7.46-7.93-3.67-.4,3.44-.67,23.88-.4,24.36s.67.39,1.39-.36C170.75,75.38,174,65.39,173.59,59.27Z"/><path d="M182.79,56.43c-.6-.47-.72-1.3-.64-4.62.08-3.79.12-4.1.79-5a2.57,2.57,0,0,1,1-1A1.7,1.7,0,0,1,186.26,47c.12.67,0,7.26-.08,7.93a3,3,0,0,1-1.58,1.86A1.79,1.79,0,0,1,182.79,56.43Z"/><path d="M193.68,84.5c.08-.32.63-.87,1.74-1.86,3.94-3.35,8.13-8.56,8.13-10.93,0-4.27-11.17-4.62-13.94-10.54-1.22-2.61-.47-5.33,2.29-8.21,2.29-2.37,5.17-4.31,8.57-4.31a4,4,0,0,1,2.21.48c2.33,1.66-.59,3.31-2.25,3.59-2.25.39-5.92,3.71-6.87,5.76-2.33,4.86,13.9,3.75,13.86,14.06,0,2.09-.56,3.51-2.37,6.27-1.27,1.9-6.44,8.53-9,8.53a2.65,2.65,0,0,1-1.19-.32A2.15,2.15,0,0,1,193.68,84.5Z"/><path d="M35.57,131.86c.09-.32.64-.87,1.74-1.86,3.95-3.35,8.13-8.56,8.13-10.93,0-4.27-11.17-4.62-13.93-10.54-1.22-2.61-.47-5.33,2.29-8.21C36.09,98,39,96,42.37,96a4,4,0,0,1,2.2.47c2.34,1.66-.59,3.31-2.25,3.59-2.25.4-5.91,3.71-6.86,5.76-2.33,4.86,13.89,3.75,13.85,14.06,0,2.09-.55,3.51-2.37,6.27-1.26,1.9-6.43,8.53-9,8.53a2.65,2.65,0,0,1-1.18-.32A2.15,2.15,0,0,1,35.57,131.86Z"/><path d="M65,133c-.32-.63-.35-2.33-.08-8.17s.32-5.72-3.12-5.33a22.56,22.56,0,0,0-2.52.4c-.83.31-.87.51-.87,5.4,0,3.72,0,4.5-.24,4.9-.28.59-.87.87-1.89.83-1.31,0-1.82-.59-2-2.29,0-.47-.16-5.57-.23-11.29s-.2-12.16-.24-14.21c-.12-4.23,0-4.66.75-5.13a3,3,0,0,1,2.68,0c.95.63.91.35,1,9.23l.08,8,.35.35c.28.32.48.4,1.15.4a17.92,17.92,0,0,0,4.7-.67c.83-.52.9-.87,1.22-6.56.32-6.16.71-10.5,1-10.93.31-.67.79-.91,1.81-.91s1.78.32,2.1,1,.23,1-.4,8.76c-.63,8-1.06,15.2-1.22,21.47-.12,3.79-.2,4.5-.79,5.06a1.65,1.65,0,0,1-1.34.47,3.54,3.54,0,0,1-1.27-.12A1.84,1.84,0,0,1,65,133Z"/><path d="M95,115.32c0,6.08-1.62,17.45-9.67,17.45-8.33,0-8.77-12.16-8.77-18.12,0-3.28.36-10.62,1.9-13.38a6.57,6.57,0,0,1,6-3.64C92.84,97.63,95,108.77,95,115.32Zm-8.41,13.93c2.92-3.08,3.79-9.43,3.79-13.54,0-3.23-.91-14.76-5.21-14.76-4,0-4,12-4,14.8,0,2.53.75,14.25,4.11,14.25A1.78,1.78,0,0,0,86.57,129.25Z"/><path d="M115.74,101.62a12.91,12.91,0,0,1-1.43,5.76,97.68,97.68,0,0,1-7.93,13.35,20.42,20.42,0,0,0-1.93,3.15,44.09,44.09,0,0,0-.12,5.93l0,5.36-.4.4a2.47,2.47,0,0,1-2.13.47c-1.18-.2-1.62-.87-1.78-2.72-.07-.59-.11-7.15-.15-14.57s-.12-14.8-.2-16.42c-.24-4.38-.24-5.8,0-6.16a2.16,2.16,0,0,1,1.62-.83c.35-.07,1.46-.27,2.45-.47a15.18,15.18,0,0,1,3.94-.39C112.26,94.48,115.74,96.65,115.74,101.62ZM104.29,99c-.28.39-.28.67-.12,4.73,0,1.19.12,12,.79,11.29s3.63-5.92,4.89-8.29C115.74,95.7,105.16,97.44,104.29,99Z"/><path d="M135.82,101.62a12.88,12.88,0,0,1-1.42,5.76,97.68,97.68,0,0,1-7.93,13.35,21.74,21.74,0,0,0-1.94,3.15,46.14,46.14,0,0,0-.12,5.93l0,5.36-.39.4a2.48,2.48,0,0,1-2.13.47c-1.19-.2-1.62-.87-1.78-2.72-.08-.59-.12-7.15-.16-14.57s-.11-14.8-.19-16.42c-.24-4.38-.24-5.8,0-6.16a2.14,2.14,0,0,1,1.62-.83c.35-.07,1.46-.27,2.44-.47a15.21,15.21,0,0,1,4-.39C132.35,94.48,135.82,96.65,135.82,101.62ZM124.38,99c-.28.39-.28.67-.12,4.73,0,1.19.12,12,.79,11.29s3.63-5.92,4.89-8.29C135.82,95.7,125.24,97.44,124.38,99Z"/><path d="M139.85,130.59c-.28-2.13-.12-9.9.39-24.23.24-6,.28-6.12,1.07-6.4a3.92,3.92,0,0,1,2.21.24c1.18.59,1.34,1.58,1,7.18-.31,5.33-.59,15.16-.59,21.6a20.82,20.82,0,0,1-.12,3c-.15.55-.94.83-1.73.83C140.64,132.81,140,131.94,139.85,130.59Z"/><path d="M151.73,134.46c0-.35,0-4.22.07-8.6.12-8,0-16.11-.39-21.83-.16-3.16-.12-3.51.63-3.91a2.82,2.82,0,0,1,1.42-.28,3,3,0,0,1,1.11.16c1.06.4,2,1.78,4.54,6.4s5.44,9.79,5.92,10.26.43.39.63.16c.67-.67,1-13.23,1-14.8,0-2.22.12-2.81.75-3.16a2.52,2.52,0,0,1,1.22-.32A2.72,2.72,0,0,1,171,99.73c.2.43.24.79.12,3.35-.08,1.58-.2,4.78-.28,7.07-.39,9.59-.75,14.8-1.1,15.51a2.07,2.07,0,0,1-2,1,2.36,2.36,0,0,1-1.93-.75c-.52-.63-3.83-6-6.16-10.07-1.26-2.21-2.37-4.1-2.49-4.22-.27-.32-.71-.36-.83,0,0,.12-.07,2.44-.07,5.13,0,5.45-.24,13.3-.44,15.83s-.67,3.2-2.21,3.27c-.87.08-1,0-1.42-.35A1.13,1.13,0,0,1,151.73,134.46Z"/><path d="M176.39,122c-.27-6.83,1.74-15.59,4.82-21a8.29,8.29,0,0,1,3.47-3.47,6.23,6.23,0,0,1,3.63,0,5.31,5.31,0,0,1,3,3.19,17.48,17.48,0,0,1,1,5c0,.82,0,1-.36,1.3s-.51.35-1.18.35c-1.62,0-2.37-.71-2.64-2.48-.36-2.21-.64-3.32-.95-3.71s-.36-.36-.71-.2c-1.27.59-4,7.3-5,12.12a32.59,32.59,0,0,0-.79,8.09c0,3.75.08,4.86,1,7.26,2.57,7.23,5,.83,6.28-3.23.63-1.94,1-2.57-.63-2.37-2.21.27-2.73.27-3.2,0a2.15,2.15,0,0,1-.95-1.94c.24-.94.95-1.3,4.38-2.09,4.46-1,5.88-1,6.44.43.31.72.27,1.15-.28,2.49-.28.67-.91,2.57-1.46,4.19-1.07,3.31-1.85,5.13-2.84,6.43a6.71,6.71,0,0,1-2.8,2.13,9.67,9.67,0,0,1-3.6.24C179.08,134.15,176.71,129.57,176.39,122Z"/><path d="M84.67,180.8c-.31-.67-.35-.91-.67-8.88-.28-6.28-.35-10.54-.35-18.16,0-9.79,0-10,.23-10.31a2.12,2.12,0,0,1,1.46-.43,2.74,2.74,0,0,1,1.54.4C88,144.09,88,144.8,88,156.6c0,5.68.08,11.37.47,17,.12,2.45.28,3,.91,3a9.15,9.15,0,0,0,2.09-.83c3.36-1.58,4.5-1.89,5.8-1.65a1.77,1.77,0,0,1,1.54,1.57c0,.72-.27,1.07-1.1,1.47-.36.15-2.73,1.3-5.29,2.52C88,181.86,87.71,182,86.88,182A2.16,2.16,0,0,1,84.67,180.8Z"/><path d="M101.76,178c-.28-2.14-.12-9.91.4-24.24.23-6,.27-6.12,1.06-6.4a4,4,0,0,1,2.21.24c1.19.59,1.34,1.58,1,7.18-.32,5.33-.59,15.16-.59,21.6a20.82,20.82,0,0,1-.12,3c-.16.55-.95.83-1.74.83C102.55,180.17,101.88,179.3,101.76,178Z"/><path d="M115.38,179.22c.08-.32.63-.87,1.73-1.86,4-3.35,8.13-8.56,8.13-10.93,0-4.26-11.17-4.62-13.93-10.54-1.22-2.61-.47-5.33,2.29-8.21,2.29-2.37,5.17-4.3,8.57-4.3a4.08,4.08,0,0,1,2.21.47c2.33,1.66-.6,3.32-2.25,3.59-2.25.4-5.92,3.71-6.87,5.76-2.33,4.86,13.89,3.75,13.85,14.06,0,2.09-.55,3.51-2.37,6.27-1.26,1.9-6.43,8.53-9,8.53a2.65,2.65,0,0,1-1.18-.32A2.13,2.13,0,0,1,115.38,179.22Z"/><path d="M135.74,179.53c-.27-.67-.43-6.35-.59-20-.12-6.59-.2-10.78-.28-11-.35-.91-.67-.91-2.68,0s-3.47.79-4.15-.32a2.13,2.13,0,0,1,0-2.05c.32-.59.87-.79,6-2.57,11.4-3.94,14.84-4.5,15.59-2.52a1.3,1.3,0,0,1-.28,1.54,8.9,8.9,0,0,1-2.09.71,52.46,52.46,0,0,0-7,2.21c-.95.55-1,.83-.83,4.42.08,1.7.16,6,.16,9.47s.08,9.24.2,12.83c.2,6.2.16,7.11-.2,7.78s-1.5.87-2.53.67A1.87,1.87,0,0,1,135.74,179.53Z"/></g></g></svg>