<svg xmlns="http://www.w3.org/2000/svg" viewBox="0 0 610 620.45"><defs><style>.cls-1,.cls-5{fill:#7a6a6d;}.cls-1,.cls-10,.cls-3,.cls-4{stroke:#000;}.cls-1,.cls-13,.cls-14,.cls-19,.cls-3{stroke-miterlimit:10;}.cls-1,.cls-10,.cls-13,.cls-14,.cls-3,.cls-4{stroke-width:2px;}.cls-2{fill:#534947;}.cls-3{fill:#8ba564;}.cls-14,.cls-19,.cls-4{fill:none;}.cls-10,.cls-4{stroke-linecap:round;stroke-linejoin:round;}.cls-15,.cls-6{fill:#f7f8fa;}.cls-6{opacity:0.2;}.cls-7{fill:#cbcacf;}.cls-8{fill:#837374;}.cls-9{fill:#342c29;}.cls-10{fill:#302b28;}.cls-11{fill:#574946;}.cls-12{fill:#574748;}.cls-13{fill:#eca53d;stroke:#3a2416;}.cls-14{stroke:#021010;}.cls-16{fill:#2d2c27;}.cls-17{fill:#f2f2f2;}.cls-18{opacity:0.4;}.cls-19{stroke:#999;stroke-width:0.5px;}</style></defs><g id="Layer_2" data-name="Layer 2"><g id="Layer_1-2" data-name="Layer 1"><path class="cls-1" d="M609,589.66h-86.3c-6.63-3.07-10.25-38.3-10.25-38.3v-26l40.89-90.9S575.8,446.68,592,488.55A200.57,200.57,0,0,1,600.19,516c1.67,7.32,3,14.67,4.13,21.76A414.28,414.28,0,0,1,609,589.66Z"/><path class="cls-2" d="M603.38,537.73a41.33,41.33,0,0,1-25.25,2.17c-4.46-1.06-9.43-3.81-9.66-8.38s4.26-7.68,8.35-9.54a71.31,71.31,0,0,1,22.43-6C600.92,523.29,602.28,530.64,603.38,537.73Z"/><path class="cls-3" d="M210.08,549.19c-.79,10.48.28,40.47.28,40.47H509.59l2.17-30.32.15-2.11a38.65,38.65,0,0,1,8.67-21.81,315.27,315.27,0,0,1,21.95-23.52C569.34,485.47,596.91,487,596.91,487l-6.12-18.38a1.59,1.59,0,0,0-.07-.2c-6.23-18.49-29.88-60.38-50.49-77.93-17.16-14.62-64.38-26.72-80-30.42-3.19-.76-5.06-1.16-5.06-1.16H256.83s-7-.11-16.72.55c-12.89.89-30.45,3.13-42.26,8.82"/><path class="cls-4" d="M240.11,359.48c2.21,15.44,8.06,38.33,22.34,47.62,21.95,14.3,43.4,28.09,88.85,26S432,413,445.77,395.36c8-10.32,17.37-21.73,20.73-33.75"/><path class="cls-4" d="M495.81,461.74a161.91,161.91,0,0,1,7.15,22c1.29,5,3.05,19.12,4.78,35.09h0c1.48,13.68,2.92,28.71,4,40.54"/><path class="cls-4" d="M207.3,415.78s-4.09,62.3,0,90.9c.78,5.44,1.37,12.14,1.82,19.42.27,4.38.49,9,.66,13.63.12,3.14.22,6.31.3,9.46"/><path class="cls-4" d="M590.72,468.44c-9.19.1-20.54,2.1-33.64,8.11-36.31,16.64-49,41.62-49.34,42.24h0"/><path class="cls-5" d="M481.05,170.83h0a.18.18,0,0,1-.15.07h0a1.36,1.36,0,0,1-.7-.29s-.12.25-.29.71a17.1,17.1,0,0,0-.34,8.46c1,5.19-1,4.7-.44,7a4.79,4.79,0,0,1,.14,1.51c-.1,1-.25,2.73-.28,3.76a31.39,31.39,0,0,1-.21,7.15c-.21,1.26-.27,1.63-.29,1.71s0-.19-.3,1.33c-.6,3.06-.08,2.56-2.26,7.6a9.19,9.19,0,0,0-1,3.61,4.66,4.66,0,0,1-.13,1.35h0a4.47,4.47,0,0,1-1,1.95l-.15.17c-.94,1.12-1.06,1.75-.89,2.11a3.86,3.86,0,0,1,.38,2.62,12.22,12.22,0,0,1-2.7,5.39,4.93,4.93,0,0,0-.87,5.6s1.56,1.07-.16,5.62a22.16,22.16,0,0,0-1.23,4.32,7.93,7.93,0,0,0,.51,4.85c1,2.07-.08,3.06-.26,9.19a11.3,11.3,0,0,1-5.28,9.71,12,12,0,0,1-2.7,1.3c-4.13,1.41-6.81,5.93-7.37,7.44-.36,1-2.78,3.75-4.38,5.48a4.67,4.67,0,0,1-1.15.89,4.58,4.58,0,0,1-.91.4,23.69,23.69,0,0,1,.7,4.44c0,1.53,3,3.15,5.93,6.82,2.71,3.35,2.42,7,3.05,10.81.05.34.11.68.19,1,.49,2.25.3,12.65-.14,23.88-.21,5.7-.49,11.6-.76,16.78h0c-.19,3.35-.36,6.39-.52,8.85-.43,6.42-4.76,13.28-11.21,20.27-7.38,8-17.55,16.18-27.87,24.07a42.59,42.59,0,0,1-5.93,3.73c-21.82,11.51-62,13.74-62,13.74l-24-.69c-24-.69-53.42-25.55-56.42-27.68s-7.34-11.45-7.34-11.45a50.61,50.61,0,0,1-.84-6.16c.05-1.52-.28-8.18-.28-8.18a50.64,50.64,0,0,1,.26-9.18,38.36,38.36,0,0,0,.23-8.17l-2.84-8.25,2.85-9.63-2.38-6.71s.32-1.37.57-3c-.77-.06-1.64-.14-2.63-.27l-.49-.06c-9.28-1.25.4,0-4.65-1.07-4.14-.91-1.62-.35-8.39-1.93l-.62-.14-1.38-.32-1.6-.36-.32-.07c-.26-.07-.53-.13-.8-.18l-.84-.2-.88-.2-.39-.1c-.22-.05-.15,0-1.36-.91l0,0-.3-.21c-.32-.24-.72-.54-1.21-.89l-.13-.09L230.41,309a5.64,5.64,0,0,0-2.5-1.23h0a1.12,1.12,0,0,0-.27,0,.86.86,0,0,0-.53.51c-.15.28-.25.6-.5.71h0A.84.84,0,0,1,226,309l-.14-.08a20.71,20.71,0,0,1-3.42-2.73l-.32-.28-.66-.57L221,305c-.17-.14-.34-.28-.53-.41a21.1,21.1,0,0,0-2.11-1.48l-.31-.18h0c-.15-.1-.3-.18-.42-.27l-.23-.13a.33.33,0,0,0-.1-.06c-.8-.48-.8-.42-1.19-.44h0a16.6,16.6,0,0,1-4.29-1.14l-1-.33-.05,0-.22-.07h0a.31.31,0,0,1-.12-.05c-2.73-.92-1.46-.53-1.57-.84-.05-.16-.48-.53-2.07-1.38l-.66-.35-.17-.1c-2.28-1.22-1.46-.8-1.76-1.09h0a21.69,21.69,0,0,0-2.41-1.66l-.28-.18-.09-.06a15.87,15.87,0,0,1-1.59-1.15l-.1-.09c-.89-.8-.67-1.07-.27-1.13l-2.13-.07A4.46,4.46,0,0,1,196,292c-1.57-.53-5.67-1.91-9.07-3.19l-.17-.06-.43-.16-2.28-.9a2.54,2.54,0,0,1-.38-.16l0,0-.45-.2-.17-.08a6.13,6.13,0,0,1-.92-.51c-.12-.08-.24-.15-.34-.23l-.17-.13a3.19,3.19,0,0,1-.42-.38,5.46,5.46,0,0,1-1.27-1.91v0a4.8,4.8,0,0,1-.27-1.1,1.85,1.85,0,0,0-.35-.8v0l-.43-.53-.19-.24c-.07-.09-.14-.19-.22-.28l-1.66-2c-.09-.11-.17-.22-.25-.34-.31-.46-1.16-1.74-1.86-2.86l-.11-.16-.11-.19c-.33-.54-.6-1-.74-1.3a16.17,16.17,0,0,0-1.66-2.13,18.52,18.52,0,0,1-3-4.53l-.09-.22s0,0,0-.06l-.12-.35a4.3,4.3,0,0,0-.25-.69c0-.1-.09-.2-.14-.3a2.1,2.1,0,0,0-.15-.3l-.16-.27a3.93,3.93,0,0,0-.35-.52,1.5,1.5,0,0,0-.18-.24h0l-.28-.36-.07-.07a15.41,15.41,0,0,1-1.57-2l0,0h0a4.88,4.88,0,0,1-.7-2c-.37-2.68,2.92-24.33,3.69-26.44,1-2.75,3.92-9.74,4.76-13.25.68-2.84,1.06-4.7.31-6.28a4.66,4.66,0,0,1-.31-3.21,89.65,89.65,0,0,1,3.1-9.24c2.93-7.58-.61-2.06,1-6.09s-2.44-3.65.27-9.2c1.13-2.31,1.33-3.13,1.18-3.32a3,3,0,0,1-1-1.95l.12-4.43a19,19,0,0,1,.15-1.92l12.89-34.19.47-.77c.08-.13.16-.26.22-.38a0,0,0,0,0,0,0l.3-.51a4,4,0,0,1,.18-.36,2.4,2.4,0,0,0,.11-.23l.1-.2c0-.06.05-.12.07-.17a8.12,8.12,0,0,1,1.22-2.5c.06-.1.13-.21.21-.32.39-.58.93-1.35,1.68-2.37,4.79-6.5,0,0,3.26-6.55l.5-1a15.15,15.15,0,0,1,1-2,10.31,10.31,0,0,0-.2,1.06c0,.35.13.52.76-.07,2.1-2,4.16-2.44,6.76-3.89,2.38-1.35.37-.21,3.36-4.73l.89-1.29c4.26-6,0,0,2.65-3,1.13-1.28,1.29-1.46,1.31-1.65s-.16-.51,1.38-3.39c.25-.46.48-.86.68-1.22,2-3.47,2.16-2,4.1-4.77,2.12-3,0,0,3.26-7.05s0,0,5.24-4.45,2.08-1.47,5.8-6.48,0,0,5.3-6.49l.94-1.16c.18-.2.32-.38.45-.55s.41-.5.57-.67h0a6.75,6.75,0,0,1,.54-.61h0a.8.8,0,0,1-.05.16l0,0a2.35,2.35,0,0,0-.1.22c-.07.17-.12.33-.07.4a.09.09,0,0,0,.08,0c.16,0,.53-.21,1.3-.82a8.18,8.18,0,0,1,6.87-1.33,4.67,4.67,0,0,0,3.68-.76c4.23-3,14.58-10.4,17.45-11.93h0c.1,0,.55-.17,2.56-.77l2-.61c4.64-1.4,2.06-.45,5.14-.88s0,0,3.1-1.44l12.44-3.59a3.44,3.44,0,0,1,.91-.12l3.1.09c3.58.11,0,0,5.15-1.38s0,0,7.19-1.32,0,0,6.7-1.86l3,.61c3.06.59,0,0,5.58,1.69a16.32,16.32,0,0,0,3.77.95s0,.08.27.3c1.51,1.18,2.1-1.59,5.1.54s3.1-1.44,6.13.18a7.23,7.23,0,0,0,5.47.41,4.38,4.38,0,0,1,1.48-.21l2.23.06c3.06.09,0,0,2.52,1.09s2.55.59,8.62,2.29,0,0,5.6.67c.65.08,1.15.13,1.53.2,2.87.36-1.35,0-.06,1.89,1.47,2.09,3.6-.4,6.64.2s0,0,6.05,2.72l2.82,1.26c-.16-.1-1.6-.81.21-.15,3,1.11,3,1.62,8.59,3.31s0,0,5,2.7,2.59-1.45,10.71.31,0,0,8.15.74,7.09,2.25,10.61,4.39c2.46,1.51,8,8.87,11.13,13.15a4.75,4.75,0,0,0,4,2c.15,0,.31,0,.49,0a16.86,16.86,0,0,1,4.88,1.27c7.07,2.77,2,1.6,5,4.24a79,79,0,0,1,6.46,6.79,1.66,1.66,0,0,0,1.23.58,1.67,1.67,0,0,1,1.27.63l2.47,3.05a25.05,25.05,0,0,1,3.91,6.25s.95,2.58,2.85,7.23,1.89,5.68,1.89,5.68l.45,2c.45,2.06.93,3.09.89,4.62l-.15,5.11-.08,3.06-.17,5.61,0,.93-.09,3.16-.11,3.57-.07,2.55-.18,6.13c0,1.53.43,3.08,2.43,7.22C481.15,169.91,481.24,170.61,481.05,170.83Z"/><path class="cls-2" d="M481.05,170.83h0l-.15.07h0q-.5.22-1,.42c-.58.24-1.16.47-1.75.69a75.14,75.14,0,0,1-28.89,4.73,15.73,15.73,0,0,1-6.84-1.36c-2.08-1.09-3.76-3.24-3.62-5.58.21-3.58,4.11-5.56,7.42-6.94a175.16,175.16,0,0,0,32.06-17.43l-.09,3.16-.11,3.57-.07,2.55-.18,6.13c0,1.53.43,3.08,2.43,7.22C481.15,169.91,481.24,170.61,481.05,170.83Z"/><path class="cls-2" d="M474.77,214.8a4.47,4.47,0,0,1-1,1.95l-.15.17c-.94,1.12-1.06,1.75-.89,2.11a3.86,3.86,0,0,1,.38,2.62,12.22,12.22,0,0,1-2.7,5.39,4.93,4.93,0,0,0-.87,5.6s1.56,1.07-.16,5.62a22.16,22.16,0,0,0-1.23,4.32,84.33,84.33,0,0,1-19.67,1.59c-3.46-.13-7.06-.51-10-2.37s-4.92-5.57-3.77-8.83c.82-2.35,3.06-3.95,5.42-4.76a37.42,37.42,0,0,1,7.33-1.23A51.43,51.43,0,0,0,474.77,214.8Z"/><path class="cls-2" d="M456.52,304.93c.49,2.25.3,12.65-.14,23.88a32.74,32.74,0,0,1-28.9-4.84c-2.51-1.88-4.94-4.7-4.34-7.79a6.73,6.73,0,0,1,4.17-4.56,23.89,23.89,0,0,1,6.28-1.31,81.57,81.57,0,0,0,22.74-6.4C456.38,304.25,456.44,304.59,456.52,304.93Z"/><path class="cls-2" d="M455.62,345.6c-.19,3.35-.36,6.39-.52,8.85-.43,6.42-4.76,13.28-11.21,20.27a10.84,10.84,0,0,1-1.69-.37c-5.14-1.56-8.51-6.31-11.5-10.77-1.26-1.89-2.58-4.26-1.6-6.32a6.52,6.52,0,0,1,3.1-2.6A112,112,0,0,1,455.62,345.6Z"/><path class="cls-4" d="M410.09,402.52a42.59,42.59,0,0,0,5.93-3.73c10.32-7.89,20.49-16.06,27.87-24.07,6.45-7,10.78-13.85,11.21-20.27.16-2.46.33-5.5.52-8.85h0c.27-5.18.55-11.08.76-16.78.44-11.23.63-21.63.14-23.88-.08-.34-.14-.68-.19-1-.63-3.76-.34-7.46-3.05-10.81-3-3.67-6-5.29-5.93-6.82a23.69,23.69,0,0,0-.7-4.44,4.87,4.87,0,0,0,2.06-1.29c1.6-1.73,4-4.47,4.38-5.48.56-1.51,3.24-6,7.37-7.44a11.41,11.41,0,0,0,8-11c.18-6.13,1.23-7.12.26-9.19a7.93,7.93,0,0,1-.51-4.85,22.16,22.16,0,0,1,1.23-4.32c1.72-4.55.16-5.62.16-5.62a4.93,4.93,0,0,1,.87-5.6,12.22,12.22,0,0,0,2.7-5.39,3.86,3.86,0,0,0-.38-2.62c-.17-.36,0-1,.89-2.11l.15-.17a4.47,4.47,0,0,0,1-1.95h0a4.66,4.66,0,0,0,.13-1.35,9.19,9.19,0,0,1,1-3.61c2.18-5,1.66-4.54,2.26-7.6.3-1.52.3-1.39.3-1.33s.08-.45.29-1.71A31.39,31.39,0,0,0,479,192c0-1,.18-2.74.28-3.76a4.79,4.79,0,0,0-.14-1.51c-.55-2.28,1.43-1.79.44-7a17.1,17.1,0,0,1,.34-8.46c.17-.46.29-.71.29-.71a1.36,1.36,0,0,0,.7.29h0a.18.18,0,0,0,.15-.07h0c.19-.22.1-.92-.79-2.76-2-4.14-2.47-5.69-2.43-7.22l.18-6.13.07-2.55.11-3.57.09-3.16,0-.93.17-5.61.08-3.06.15-5.11c0-1.53-.44-2.56-.89-4.62l-.45-2s0-1-1.89-5.68-2.85-7.23-2.85-7.23a25.05,25.05,0,0,0-3.91-6.25l-2.47-3.05a1.67,1.67,0,0,0-1.27-.63,1.66,1.66,0,0,1-1.23-.58,79,79,0,0,0-6.46-6.79c-3-2.64,2.08-1.47-5-4.24a16.86,16.86,0,0,0-4.88-1.27c-.18,0-.34,0-.49,0a4.75,4.75,0,0,1-4-2c-3.11-4.28-8.67-11.64-11.13-13.15-3.52-2.14-2.45-3.64-10.61-4.39s0,1-8.15-.74-5.68,2.39-10.71-.31.54-1-5-2.7-5.55-2.2-8.59-3.31c-1.81-.66-.37,0-.21.15l-2.82-1.26c-6.05-2.72-3-2.13-6.05-2.72s-5.17,1.89-6.64-.2c-1.29-1.84,2.93-1.53.06-1.89-.38-.07-.88-.12-1.53-.2-5.6-.67.48,1-5.6-.67s-6.09-1.19-8.62-2.29.54-1-2.52-1.09l-2.23-.06a4.38,4.38,0,0,0-1.48.21,7.23,7.23,0,0,1-5.47-.41c-3-1.62-3.13,1.95-6.13-.18s-3.59.64-5.1-.54c-.28-.22-.28-.29-.27-.3a16.32,16.32,0,0,1-3.77-.95c-5.58-1.69-2.52-1.1-5.58-1.69l-3-.61c-6.7,1.86.49.53-6.7,1.86s-2-.06-7.19,1.32-1.57,1.49-5.15,1.38l-3.1-.09a3.44,3.44,0,0,0-.91.12l-12.44,3.59c-3.1,1.44,0,1-3.1,1.44s-.5-.52-5.14.88l-2,.61c-2,.6-2.46.75-2.56.77h0"/><path class="cls-6" d="M185,167.52c.21-7.18,4.33-12.87,9.22-12.73s8.68,6.06,8.48,13.24-4.35,12.86-9.22,12.72S184.75,174.69,185,167.52Z"/><path class="cls-6" d="M189,199.19a30.24,30.24,0,0,1,4.36,4.18A24.3,24.3,0,0,1,189,199.19Z"/><path class="cls-7" d="M426.55,209.92c2.3,3.12-.12,4.41-2,11.85S423,226.84,419,235.92s-2.51,4.69-4.31,7.71-2.6,7.76-4.16,12.36-1.53,8.24-4.07,13.64c-1.67,3.55-2.34,8.11-2.64,12.07-.16,2.09-.21,4-.26,5.54-.12,4.42,1.53,6.17,1.68,13a27.31,27.31,0,0,1-.35,5.32,22.7,22.7,0,0,0-.06,9c1.15,8,3.36,13.38,6.53,18.24s-.38,4.42-.33,11.56,1.65,5.16,2.47,12.34-2.2,5-3.16,14.9,2.09,22.2,2.09,22.2l2,.05-4.37,8.71c-21.82,11.51-62,13.74-62,13.74l-24-.69c-24-.69-53.42-25.55-56.42-27.68s-7.34-11.45-7.34-11.45a50.61,50.61,0,0,1-.84-6.16c.05-1.52-.28-8.18-.28-8.18a50.64,50.64,0,0,1,.26-9.18,38.36,38.36,0,0,0,.23-8.17l-2.84-8.25,2.85-9.63-2.38-6.71s.32-1.37.57-3c-.77-.06-1.64-.14-2.63-.27l-.49-.06c-2.56,1.23-9.4-2.14-13-3l-.62-.14c-2.51-.51-3.84-.38-5.82-1.33l-.39-.1c-.22-.05-.15,0-1.36-.91l0,0-.3-.21c-.46-.31-.86-.61-1.21-.89l-.13-.09L230.41,309a5.64,5.64,0,0,0-2.5-1.23h0a1.12,1.12,0,0,0-.27,0,.86.86,0,0,0-.53.51c.09.33.37.69-.5.71h0A.84.84,0,0,1,226,309c-1.17-.33-2.21-1.56-3.56-2.81l-.32-.28-.66-.57L221,305c-1.09-.84-2.15-1.57-3-2.07h0c-.15-.1-.3-.18-.42-.27l-.23-.13a.33.33,0,0,0-.1-.06,7.36,7.36,0,0,0-1.19-.44h0a16.6,16.6,0,0,1-4.29-1.14l-1-.33-.05,0-.22-.07h0a.31.31,0,0,1-.12-.05c-2.73-.92-1.46-.53-1.57-.84-.72-.47-1.56-1.07-2.73-1.73l-.17-.1c-2.28-1.22-1.46-.8-1.76-1.09h0c-.92-.59-1.86-1.24-2.69-1.84l-.09-.06a15.87,15.87,0,0,1-1.59-1.15l-.1-.09a4.92,4.92,0,0,0-2.4-1.2A4.46,4.46,0,0,1,196,292c-1.57-.53-5.67-1.91-9.07-3.19l-.17-.06-.43-.16c-.82-.29-1.59-.59-2.28-.9a2.54,2.54,0,0,1-.38-.16l0,0-.45-.2-.17-.08a6.13,6.13,0,0,1-.92-.51c-.12-.08-.24-.15-.34-.23l-.17-.13a3.19,3.19,0,0,1-.42-.38,5.46,5.46,0,0,1-1.27-1.91v0a6.81,6.81,0,0,1-.62-1.9v0l-.43-.53-.19-.24-1.88-2.31c-.09-.11-.17-.22-.25-.34-.31-.46-1.16-1.74-1.86-2.86l-.11-.16-.11-.19c-.77-1.14-1.62-2.32-2.4-3.43a18.52,18.52,0,0,1-3-4.53l-.09-.22s0,0,0-.06a11.36,11.36,0,0,0-1.35-2.67h0l-.28-.36-.07-.07a15.41,15.41,0,0,1-1.57-2l0,0h0a4.88,4.88,0,0,1-.7-2c-.37-2.68,2.55-20.22,2.73-20.41.27-1.82.59-3.88,1-6-.93-2.78,6.2-11.46,5.07-19.53a9.68,9.68,0,0,1-.43-2.58,4.66,4.66,0,0,1,.12-.63,89.65,89.65,0,0,1,3.1-9.24c2.93-7.58-.61-2.06,1-6.09,1-2.53-.17-3.33-.57-4.92a.11.11,0,0,1,0,0c-.22-.95-.14-2.19.86-4.24,1.13-2.31,1.33-3.13,1.18-3.32a3,3,0,0,1-1-1.95l.12-4.43c0-.2,0-.38,0-.56,0-.55.07-1,.12-1.36L191,142.26l.76-2.14c-.23.18-.48.34-.71.52l.47-.77c.08-.13.16-.26.22-.38a0,0,0,0,0,0,0l.3-.51a4,4,0,0,1,.18-.36,2.4,2.4,0,0,0,.11-.23l.1-.2c0-.06.05-.12.07-.17a8.12,8.12,0,0,1,1.22-2.5c.06-.1.13-.21.21-.32.39-.58.93-1.35,1.68-2.37,4.79-6.5,0,0,3.26-6.55l.5-1a15.15,15.15,0,0,1,1-2,10.31,10.31,0,0,0-.2,1.06c0,.35.13.52.76-.07,2.1-2,4.16-2.44,6.76-3.89,2.38-1.35.37-.21,3.36-4.73l.89-1.29c4.26-6,0,0,2.65-3,1.13-1.28,1.29-1.46,1.31-1.65,2.77-3,1.77-10,6.64-13.63s3.51-12.53,7.69-15.82,5.37-3.07,8.23-7.76c2.41-4,4.18,4.48,5.16,1h0a6.83,6.83,0,0,1,.9-2c2.87-4.39,1.93-7.44,6.39-9s3,2.13,4.95,8.35,2.5,5.14,3.43,8.24,3.32,3.16,3.06,12.34,2.49,19.83,2.44,21.53.91,3.77,2.83,7.58,1,2.74,2.66,3.13,3.5-3.64,8.74-6.06,3,.62,4.37.13.95,2.6,2.63,3.32,1.72-.63,5.54-3.09,2.72-.07,7.86-2.65,1.78-1,8.89-1.45,2.46-.95,4.53-1.91,2.44-1.63,6.59-3.91,1.7-.28,5.61-1.87a32.76,32.76,0,0,0,6.45-3.57,17.54,17.54,0,0,1,10-2.77c5.1.14,14.13-5.73,14.13-5.73s-1.81,15.28-2.88,16.95.91,3.77,3.6,5.21,2.37.41,6.51-.49,3.44-1.94,4.83-2.92,5.2-3.27,8.67-5.55,2.07-1,7.17-1.42,1,1,4.06,2.08,0,0,4.45-1.23,2.38.07,5.45.16,2.27,3.81,6.26,7.33-.08,2.72.2,5.11.92,3.44,1.18,6.17-.06,2-1.12,3.6-.75,2.13-3.59,6.13-.74,2-.16,5.4.65,1.09,4.33,3.7,1.3,2,3.43,4.07.13,2,3.79,5.38,6.53.19,6.53.19a40.53,40.53,0,0,1,1.48,5.66,110.62,110.62,0,0,0,1.35,12c.6,2.73,2,2.77,3.53,7.93s2.45,9.26,3.33,13.61-3.59,7.15-4,10.21S424.26,206.78,426.55,209.92Z"/><path class="cls-8" d="M274.1,284.36c-.94,4.9-4.54,8.8-8,12.42-4.41,4.63-8.9,9.31-14.34,12.68a38.8,38.8,0,0,1-10,4.34l-6.44-1.47-.39-.1c-.22-.05-.15,0-1.36-.91l0,0-1.51-1.1-.13-.09L230.41,309a5.64,5.64,0,0,0-2.5-1.23h0a1.12,1.12,0,0,0-.27,0,.86.86,0,0,0-.53.51c-.15.28-.25.6-.5.71h0A.84.84,0,0,1,226,309l-.14-.08a20.71,20.71,0,0,1-3.42-2.73l-.32-.28-.66-.57a25.42,25.42,0,0,0-3.1-2.26l-.31-.18h0l-.42-.27-.23-.13a.33.33,0,0,0-.1-.06c-.8-.48-.8-.42-1.19-.44h0a16.6,16.6,0,0,1-4.29-1.14l-1-.33-.05,0-.23-.08a.31.31,0,0,1-.12-.05c-2.73-.92-1.46-.53-1.57-.84-.05-.16-.48-.53-2.07-1.38l-.66-.35-.17-.1c-2.28-1.22-1.46-.8-1.76-1.09h0a21.69,21.69,0,0,0-2.41-1.66l-.28-.18-.09-.06a15.87,15.87,0,0,1-1.59-1.15l-.1-.09c-.89-.8-.67-1.07-.27-1.13l-2.13-.07A4.46,4.46,0,0,1,196,292c-1.57-.53-5.67-1.91-9.07-3.19l-.17-.06c-1.17-.44-2.24-.86-3.09-1.22l0,0-.45-.2-.17-.08a6.13,6.13,0,0,1-.92-.51c-.12-.08-.24-.15-.34-.23l-.17-.13a3.19,3.19,0,0,1-.42-.38,5.46,5.46,0,0,1-1.27-1.91v0a4.8,4.8,0,0,1-.27-1.1,1.85,1.85,0,0,0-.35-.8v0l-.43-.53-2.07-2.55c-.09-.11-.17-.22-.25-.34-.31-.46-1.16-1.74-1.86-2.86l-.11-.16-.11-.19c-.33-.54-.6-1-.74-1.3a16.17,16.17,0,0,0-1.66-2.13,18.52,18.52,0,0,1-3-4.53l-.09-.22s0,0,0-.06l-.12-.35a7.24,7.24,0,0,0-1.52-2.69l-.07-.07a15.41,15.41,0,0,1-1.57-2l0,0h0a4.88,4.88,0,0,1-.7-2c-.37-2.68,3.32-24.29,3.69-26.44.2-1.08.39-2.17.6-3.28,1.6-8.46,16.4-13.83,33.37-23.56.42-.24.84-.5,1.28-.79a26,26,0,0,0,2.1-1.54h0c.19-.15.39-.3.57-.47,1-.82,2.07-1.76,3.14-2.79.23-.21.46-.43.68-.66A127.51,127.51,0,0,0,220.65,189c.52-.64,1-1.3,1.54-2,1.28-1.65,2.55-3.33,3.81-5l2-.25,4.62,6.89c2.26,3.36,4.51,6.74,6.78,10.11,2.92,4.36,5.86,8.75,8.35,13.38a163.16,163.16,0,0,1,7.77,17.65q7.93,20.11,15.86,40.22C273.19,274.6,275,279.5,274.1,284.36Z"/><path class="cls-9" d="M212.54,244.87a12.92,12.92,0,0,1-3.88,3.28c-5.49-.23-18.11.3-21.38,9.59a7.8,7.8,0,0,1-1.06.26c-2.32-7.73-15.44-10.77-19.46-10.94.17-1.83.48-4.69.86-7.31.27-1.82.59-3.88,1-6,.2-1.08.39-2.17.6-3.28,1.6-8.46,16.4-13.83,33.37-23.56.42-.24.84-.5,1.28-.79a48.89,48.89,0,0,1,11.11,27.5C215.22,237.51,214.93,241.74,212.54,244.87Z"/><path class="cls-10" d="M274.73,55.84a2.15,2.15,0,0,1-1.34,3.09h0c-2.87,1.53-13.22,8.89-17.45,11.92a4.7,4.7,0,0,1-3.67.77A8.13,8.13,0,0,0,245.37,73c-3.66,3,1.64-3.52-3.66,3s-1.57,1.49-5.3,6.49-.57,2-5.8,6.47-2-2.61-5.24,4.45-1.13,4.05-3.26,7.05a11.75,11.75,0,0,1-2.53,2.57,2.19,2.19,0,0,1-3.35-.24,153.24,153.24,0,0,1-12.78-22.14c-10.28-21.41-10.7-54.12-9.71-65,.11-1.19.23-2.3.35-3.32A12.84,12.84,0,0,1,207.74,1c8,.56,18.75,2.92,27.66,10.63,16.28,14.09,25.34,18.77,31.18,29.17C269.36,45.78,272.36,51.36,274.73,55.84Z"/><path class="cls-11" d="M243,157a10.59,10.59,0,0,1-.85,3.28,10.79,10.79,0,0,1-1.55,2.47l-.26-1.58,0-.2s-6.05-26.41-33-25.81a26.53,26.53,0,0,0-16.28,5.48l.47-.77c.08-.13.16-.26.22-.38a0,0,0,0,0,0,0l.3-.51a4,4,0,0,1,.18-.36,2.4,2.4,0,0,0,.11-.23l.1-.2c0-.06.05-.12.07-.17a8.12,8.12,0,0,1,1.22-2.5c.06-.1.13-.21.21-.32.39-.58.93-1.35,1.68-2.37,4.79-6.5,0,0,3.26-6.55l.5-1q.42-.47.84-.9c0,.35.13.52.76-.07,2.1-2,4.16-2.44,6.76-3.89,2.38-1.35.37-.21,3.36-4.73,12.64,5.9,23.3,18.25,29.35,30.77C242.05,149.71,243.33,153.47,243,157Z"/><path class="cls-6" d="M202.65,168c-.21,7.17-4.35,12.86-9.22,12.72s-8.68-6.06-8.48-13.23,4.33-12.87,9.22-12.73S202.85,160.85,202.65,168Z"/><path class="cls-12" d="M277.62,165.13a118.18,118.18,0,0,1,29.34-30c8.09-5.67,16.28-10.08,21.08-9.12,11.85,2.39,12.34,9.21,15.74,9.31s13.36-2.68,18,1.54.73,9.9,3.39,12.36,12.58.7,15.75,9,.42,20.79,2.76,22.22,4.34,3.19,1.41,10.26-2.65,33-38.14,47.26-59.48,19.75-70.08,9.23-8.27-20.33-13.25-24.9-2.93-16.44-2-24.92a46.19,46.19,0,0,1,11.31-26.24A64.4,64.4,0,0,0,277.62,165.13Z"/><path class="cls-13" d="M300.65,229.79s24.67,6.84,37.78,1.09,31.38-23.62,22.54-48.74-29.43-31.83-42.4-30.84S275.26,165.38,275.46,194,300.65,229.79,300.65,229.79Z"/><path class="cls-14" d="M242.45,288.06c-3-1.45-.62-2.06-8.34-6-4.29-2.2-11.8-1.25-17.65.05a26.41,26.41,0,0,1-24-6.51A20.39,20.39,0,0,1,187.8,269h0l-.13-.3a16.11,16.11,0,0,1-1.15-7.08c0-.2,0-.39,0-.58a0,0,0,0,0,0,0,14.51,14.51,0,0,1,.71-3.22c3.27-9.29,15.89-9.83,21.38-9.59,1.58.05,2.57.18,2.57.18"/><path class="cls-14" d="M166.65,247.06h.11c4,.17,17.14,3.22,19.47,10.95a8.49,8.49,0,0,1,.29,3.59A14.79,14.79,0,0,0,187.8,269c-.62,8.68-11.3,9.74-11.3,9.74"/><path class="cls-14" d="M197.36,292.26c2.88.08,8.76-1.92,12.48-1.15,4.15.86,7.18,1.71,7.18,1.71"/><path class="cls-15" d="M202.65,168c-.21,7.17-4.35,12.86-9.22,12.72s-8.68-6.06-8.48-13.23,4.33-12.87,9.22-12.73S202.85,160.85,202.65,168Z"/><ellipse class="cls-16" cx="306.13" cy="191.72" rx="12.99" ry="8.85" transform="translate(105.7 492.22) rotate(-88.35)"/><path class="cls-11" d="M206.57,204a.13.13,0,0,1-.06.05c-.19.17-.39.32-.57.47h0a26,26,0,0,1-2.1,1.54c-.44.29-.86.55-1.28.79-2.65,1.52-5.23,2.92-7.73,4.25h0c-2.59-.17-1.54-.53-2.39-1.33s-1.38-.08-3.38-1-.92-.42-1.68-1.15-.94-.71-1.88-1.53a50.12,50.12,0,0,1-3.69-3.89c-2-2.24-2.77-3.84-2.77-4.14s-2.1-4.62-2.17-4.92l0-.05c-.21-1.11-.13-2.55.9-4.95,1.17-2.7,1.36-3.65,1.22-3.87a3.74,3.74,0,0,1-1.05-2.27l.15-5.15c0-.24,0-.46,0-.67.58-.12,2.57,1.78,3.17,2.1s7,10.91,7.59,11.32S202.12,200.39,206.57,204Z"/><path class="cls-13" d="M240.3,161s-6.05-26.41-33-25.81a26.53,26.53,0,0,0-16.28,5.48c-11.92,9.35-13.46,27.94-12.89,34.16v0c.76,8.3,8.25,24.78,16.63,29.44,2.52,1.4,6.63,1.22,11.14.28h0c.18-.15.38-.3.57-.47,1-.82,2.07-1.76,3.14-2.79.23-.21.46-.43.68-.66A127.51,127.51,0,0,0,220.65,189c.52-.64,1-1.3,1.54-2,1.28-1.65,2.55-3.33,3.81-5,5.29-7.16,10.32-14.62,14.34-20.82Z"/><path class="cls-6" d="M193.43,180.75c-4.89-.14-8.68-6.06-8.48-13.23s4.33-12.87,9.22-12.73,8.68,6.06,8.48,13.24S198.3,180.89,193.43,180.75Z"/><path class="cls-16" d="M185,167.52c.21-7.18,4.33-12.87,9.22-12.73s8.68,6.06,8.48,13.24-4.35,12.86-9.22,12.72S184.75,174.69,185,167.52Z"/><path class="cls-14" d="M302.48,318.78c-3.56-.62-2.74-2.25-4.88-3.37s-3.44-.32-4.62.79a8.27,8.27,0,0,1-7.1,2.74c-3.95-.37-2.37-2.24-6.82-2.76s-4.89,1-8,.83h0c-3.16-.17-2.94-.66-4.08-.75l-.09,0a51.86,51.86,0,0,0-5.76-.95,9.94,9.94,0,0,0-3,.11,16,16,0,0,0-3.33,1.4c-2.56,1.23-9.4-2.14-13-3-2.92-.67-4.3-.44-6.44-1.47a14.13,14.13,0,0,1-1.75-1l0,0c-.58-.39-1.08-.76-1.51-1.1l-.13-.09c-1.9-1.52-2.47-2.37-4-2.29h0l-.27,0c-.54.08-.59.29-.53.51s.37.69-.5.71h0A2.15,2.15,0,0,1,226,309c-1.17-.33-2.21-1.56-3.56-2.81l-.32-.28-.66-.57a36.88,36.88,0,0,0-3.41-2.44h0c-.15-.1-.3-.18-.42-.27l-.23-.13a.33.33,0,0,0-.1-.06,7.36,7.36,0,0,0-1.19-.44h0c-1.61-.52-4.14-1.13-5.29-1.47l-.05,0-.22-.07h0a.31.31,0,0,1-.12-.05,7.09,7.09,0,0,1-1.57-.84c-.72-.47-1.56-1.07-2.73-1.73l-.17-.1c-.56-.32-1.16-.69-1.76-1.09h0c-.92-.59-1.86-1.24-2.69-1.84l-.09-.06c-.61-.43-1.16-.84-1.59-1.15l-.1-.09a4.92,4.92,0,0,0-2.4-1.2l-2.65-.89c-2.24-.77-5.11-1.65-7.66-2.54l-.17-.06c-1.13-.4-2.19-.81-3.09-1.22l0,0-.45-.2c-.41-.2-.78-.4-1.09-.59-.12-.08-.24-.15-.34-.23l-.17-.13a3.19,3.19,0,0,1-.42-.38,8.66,8.66,0,0,1-1.27-1.91v0a6.81,6.81,0,0,1-.62-1.9v0l-.43-.53c-.47-.59-1.28-1.64-2.19-2.9h0c-.63-.87-1.32-1.85-2-2.85l-.11-.16-.11-.19c-.77-1.14-1.62-2.32-2.4-3.43a36,36,0,0,1-3-4.53l-.09-.22s0,0,0-.06a11.43,11.43,0,0,0-1.36-2.68l-.28-.36-.07-.07-1.57-2,0,0h0c-2-5.72,1.09-14.17,1.09-14.17,0-.26,0-.57.08-.91.17-1.83.48-4.69.86-7.31.27-1.82.59-3.88,1-6,.2-1.08.39-2.17.6-3.28,1.36-7.15,12.12-12.08,25.64-19.31,2.5-1.33,5.08-2.73,7.73-4.25.42-.24.84-.5,1.28-.79a26,26,0,0,0,2.1-1.54h0c.18-.15.38-.3.57-.47a.13.13,0,0,0,.06-.05c1-.81,2-1.73,3.08-2.74.23-.21.46-.43.68-.66A127.51,127.51,0,0,0,220.65,189c.52-.64,1-1.3,1.54-2,1.28-1.65,2.55-3.33,3.81-5,5.29-7.16,10.32-14.62,14.34-20.82L243,157c3.81-6,6.22-10.08,6.22-10.08"/><path class="cls-10" d="M443.72,53.86C442.23,34.42,432,11.61,425.26,8.69s-19.33,9-26.73,17.89S366,68,359.82,81.74s-5.19,38.33-5.19,38.33c4.46-.89,2.38.07,4.8-.88a33.88,33.88,0,0,1,3.78-1.25c3.78-1.26,0,0,3.81-2.28s0,0,4.12-1.24,2.76-1.28,4.87-3.61,2.42-1,4.47-1.23,5.54-3.25,7.2-2-1.9,6.87-1.9,6.87a28.63,28.63,0,0,1,7-4.57c4.14-1.92,5.12-.53,6.12.18a3.92,3.92,0,0,1,1.35,1.74l-.19,6.58s2.35-.05,4.73.14,2,.62,1.51,1.29-.3,10.37-.3,10.37c-.51.84-1.35,4.9-4.13,6.87s-2.44,4-2.44,4,.25,1,2.59,2.8,0,0,1,1.05,1,1.73,1.62,2.77,3.36,1.8,3.36,1.8l3.69,1.86-.78,2.83,3.71,2s-2.78,13.55,17.72-12.43S445.2,73.29,443.72,53.86Z"/><path class="cls-4" d="M372.38,114c1.08-8.78,7.43-46.95,37.2-71"/><path class="cls-4" d="M168.58,233.72c-.93-2.78,6.2-11.46,5.07-19.53a9.68,9.68,0,0,1-.43-2.58,4.66,4.66,0,0,1,.12-.63,89.65,89.65,0,0,1,3.1-9.24c2.93-7.58-.61-2.06,1-6.09,1-2.53-.17-3.33-.57-4.92a.11.11,0,0,1,0,0c-.22-.95-.14-2.19.86-4.24,1.13-2.31,1.33-3.13,1.18-3.32a3,3,0,0,1-1-1.95"/><path class="cls-4" d="M411.69,401.64c-21.82,11.51-63.6,14.62-63.6,14.62l-24-.69c-24-.69-53.42-25.55-56.42-27.68s-7.34-11.45-7.34-11.45a50.61,50.61,0,0,1-.84-6.16c.05-1.52-.28-8.18-.28-8.18a50.64,50.64,0,0,1,.26-9.18,38.36,38.36,0,0,0,.23-8.17l-2.84-8.25,2.85-9.63-2.38-6.71s.32-1.37.57-3c-.77-.06-1.64-.14-2.63-.27l-.49-.06c-2.56,1.23-9.4-2.14-13-3l-.62-.14c-2.51-.51-3.84-.38-5.82-1.33l-.39-.1c-.22-.05-.15,0-1.36-.91l0,0-.3-.21c-.46-.31-.86-.61-1.21-.89l-.13-.09L230.41,309a5.64,5.64,0,0,0-2.5-1.23h0a1.12,1.12,0,0,0-.27,0,.86.86,0,0,0-.53.51c.09.33.37.69-.5.71h0A.84.84,0,0,1,226,309c-1.17-.33-2.21-1.56-3.56-2.81l-.32-.28-.66-.57L221,305c-1.09-.84-2.15-1.57-3-2.07h0c-.15-.1-.3-.18-.42-.27l-.23-.13a.33.33,0,0,0-.1-.06,7.36,7.36,0,0,0-1.19-.44h0a16.6,16.6,0,0,1-4.29-1.14l-1-.33-.05,0-.22-.07h0a.31.31,0,0,1-.12-.05c-2.73-.92-1.46-.53-1.57-.84-.72-.47-1.56-1.07-2.73-1.73l-.17-.1c-2.28-1.22-1.46-.8-1.76-1.09h0c-.92-.59-1.86-1.24-2.69-1.84l-.09-.06a15.87,15.87,0,0,1-1.59-1.15l-.1-.09a4.92,4.92,0,0,0-2.4-1.2A4.46,4.46,0,0,1,196,292c-1.57-.53-5.67-1.91-9.07-3.19l-.17-.06-.43-.16c-.82-.29-1.59-.59-2.28-.9a2.54,2.54,0,0,1-.38-.16l0,0-.45-.2-.17-.08a6.13,6.13,0,0,1-.92-.51c-.12-.08-.24-.15-.34-.23l-.17-.13a3.19,3.19,0,0,1-.42-.38,5.46,5.46,0,0,1-1.27-1.91v0a6.81,6.81,0,0,1-.62-1.9v0l-.43-.53-.19-.24-1.88-2.31c-.09-.11-.17-.22-.25-.34-.31-.46-1.16-1.74-1.86-2.86l-.11-.16-.11-.19c-.77-1.14-1.62-2.32-2.4-3.43a18.52,18.52,0,0,1-3-4.53l-.09-.22s0,0,0-.06a11.36,11.36,0,0,0-1.35-2.67h0l-.28-.36-.07-.07a15.41,15.41,0,0,1-1.57-2l0,0h0"/><path class="cls-4" d="M190.61,141.81c.06-.1,3.25-6.51,3.33-6.62.39-.58.93-1.35,1.68-2.37,4.79-6.5,0,0,3.26-6.55l.5-1a15.15,15.15,0,0,1,1-2,10.31,10.31,0,0,0-.2,1.06c0,.35.13.52.76-.07,2.1-2,4.16-2.44,6.76-3.89,2.38-1.35.37-.21,3.36-4.73l.89-1.29c4.26-6,0,0,2.65-3,1.13-1.28,3.28-7.61,3.31-7.8"/><path class="cls-4" d="M381.58,305.5s6.82,2.45,8.11,2.13a49.74,49.74,0,0,0,5.42-1.74c1.81-.71,2.57-.94,3.61-1.43.51-.23.4-.11.33,0"/><path class="cls-4" d="M447.56,281.44c-1.68.41-1.61.77-4.07,2.85-2.62,2.23,0,0-1.58,1.75s0,0-1.31,1.24a32.8,32.8,0,0,0-2.37,2.48c-2.38,2.49-1.05,1-2.35,1.56s-1.56,1.14-2.86,1.62-1.79-.06-3-.86,0,0-2.79-.84-1.57,1.23-1.57,1.23l-1.07,1.75a13.61,13.61,0,0,0-5.1-.14l-1.53-.05s-1.05,1-2.38,2.49-1.3.73-3.11,1.7-1.31,1-1.31,1l-1.27,0-2.84.95c-2.83.94-2.6,1.46-2.6,1.46l-3.1,1.44c-3.11,1.44,0,0-1.56,1-.45.28-.64.41-.71.44h0"/><path class="cls-4" d="M207.53,9.66c.56,1.55,31.26,14.22,47.37,61.17"/><path class="cls-17" d="M171.85,620.08l.3.37h-.3Z"/><path class="cls-1" d="M102.08,503.62c-2.6,2-5,3.17-7,3.34-16.68,1.37-47,33.2-47,33.2a39.72,39.72,0,0,0,4.47,4.45c7.92,6.92,26.53,19.32,56.84,17.67,17.13-.93,30.61-5.47,41.51-11.67,15.71-8.93,26-21.34,34.06-31.39,13.62-17,60.43-86.47,60.43-86.47l-95.15,3.07s-29.6,53.7-48.13,67.8"/><path class="cls-3" d="M240.11,359.48c-12.89.89-30.45,3.13-42.26,8.82-20.68,9.95-31.4,18.38-44.43,61.27C145,457.36,140.68,457.91,123,477.66c-11.75,13.1-18.36,21.1-18.36,21.1s29.66,28.09,51.1,33.45a212,212,0,0,0,38.56,6.11"/><path class="cls-3" d="M210.08,549.19c-.79,10.48.28,40.47.28,40.47"/><path class="cls-4" d="M207.3,415.78s-4.09,62.3,0,90.9c.78,5.44,1.37,12.14,1.82,19.42.27,4.38.49,9,.66,13.63.12,3.14.22,6.31.3,9.46"/><path class="cls-4" d="M113.81,489.9c8.71,6,38.64,28.76,55.19,32.1,28.47,5.74,29.07,3.64,29.07,3.64"/><path class="cls-17" d="M290,492.42H86.71c-2.4-6-4.65-11.79-6.54-16.75,0-2.71,0-5.48,0-8.19A19.79,19.79,0,0,0,91.75,466c15.1-6.49,23.74-13.16,30.53-15.53s12.61-2.27,11.27-7-9.37-12.88-13-10.1-35.53,16.19-41.89,9.69a.51.51,0,0,0-.18-.18c-5.92-6.95,10.36-10,13.47-14s32.34-14.48,35.32-22.53-9.64-25.88-12-22.3-30.19,33.08-43.83,33.27c-10.3.15-16.76-3.64-19.1-9.38V269.59L262.71,268Z"/><path class="cls-17" d="M58.24,402.75s14.41,62,15.38,64.59,11.94,11.24,12.71,11.24,38.72-8.43,48.46-13.28,26,16.92,25.25-15.28,6.32-29.91,0-49.06.73-22-9.17-27.32,3.12-10.21-20.12-9.45-32.17-6.89-41.87,5.88S58.24,402.75,58.24,402.75Z"/><g class="cls-18"><line class="cls-19" x1="73.62" y1="286.09" x2="246.47" y2="284.42"/><line class="cls-19" x1="73.62" y1="307.18" x2="246.47" y2="305.52"/><line class="cls-19" x1="73.62" y1="328.28" x2="246.47" y2="326.61"/><line class="cls-19" x1="73.62" y1="349.38" x2="246.47" y2="347.71"/><line class="cls-19" x1="73.62" y1="370.47" x2="246.47" y2="368.81"/><line class="cls-19" x1="73.62" y1="391.57" x2="246.47" y2="389.9"/><line class="cls-19" x1="73.62" y1="412.67" x2="246.47" y2="411"/><line class="cls-19" x1="73.62" y1="433.76" x2="246.47" y2="432.1"/><line class="cls-19" x1="73.62" y1="454.53" x2="254.89" y2="453.52"/><line class="cls-19" x1="73.62" y1="475.95" x2="262.04" y2="474.29"/></g><path d="M66.85,336c-.32-.67-.36-.9-.67-8.88-.28-6.27-.36-10.54-.36-18.16,0-9.79,0-10,.24-10.3a2.12,2.12,0,0,1,1.46-.43,2.85,2.85,0,0,1,1.54.39c1.07.67,1.11,1.38,1.14,13.19,0,5.68.08,11.36.48,17,.12,2.45.27,3,.91,3a9.89,9.89,0,0,0,2.09-.83c3.35-1.58,4.5-1.89,5.8-1.66A1.79,1.79,0,0,1,81,331c0,.71-.28,1.07-1.1,1.46-.36.16-2.73,1.3-5.29,2.53-4.46,2.13-4.74,2.25-5.57,2.25A2.14,2.14,0,0,1,66.85,336Z"/><path d="M99.61,332.17a2,2,0,0,1-1.54.55,2.33,2.33,0,0,1-1.74-.63c-.43-.52-.55-.87-1.22-4.35-.51-2.84-.75-3.31-1.42-3.39A19.63,19.63,0,0,0,89,325.89a1.88,1.88,0,0,0-.67.71,33.33,33.33,0,0,0-.83,5c-.28,2.49-.59,4.66-.63,4.78a1.78,1.78,0,0,1-.51.63c-.4.32-.6.36-1.43.36a2.39,2.39,0,0,1-1.38-.28c-.79-.51-1-1.22-.79-3,.64-6,2.21-16.82,3.2-22,.87-4.73,2.41-10.85,3-12.12.43-.94,1.38-1.3,2.88-1.06a4.09,4.09,0,0,1,2.53,1.3c.71,1.07,1.38,4,2.41,11,.9,6.08,2.48,15.95,2.84,17.81C100,331.06,100,331.69,99.61,332.17Zm-6.16-13.23c0-1-1.26-9.27-1.5-9.87-.12-.31-.24-.47-.39-.47-.48,0-1,2.21-1.9,7.58-.75,4.38-.75,4.46-.47,4.89a.59.59,0,0,0,.55.32,4.81,4.81,0,0,0,1.62-.44C93,320.4,93.45,319.93,93.45,318.94Z"/><path d="M105.69,333.19c-.28-2.13-.12-9.91.39-24.24.24-6,.28-6.11,1.07-6.39a3.92,3.92,0,0,1,2.21.24c1.18.59,1.34,1.58,1,7.22-.31,5.29-.59,15.12-.59,21.55a21.12,21.12,0,0,1-.12,3c-.27.87-2.17,1.15-3.08.48A2.74,2.74,0,0,1,105.69,333.19Z"/><path d="M117.56,337.06c0-.35,0-4.22.08-8.6.12-8,0-16.11-.39-21.83-.16-3.16-.12-3.52.63-3.91a2.82,2.82,0,0,1,1.42-.28,3,3,0,0,1,1.11.16c1.06.39,2,1.78,4.54,6.39s5.44,9.79,5.92,10.27.43.39.63.16c.67-.68.95-13.23.95-14.81,0-2.21.11-2.8.75-3.16a2.63,2.63,0,0,1,1.22-.31,2.71,2.71,0,0,1,2.37,1.18c.2.44.23.79.12,3.36-.08,1.58-.2,4.77-.28,7.06-.39,9.6-.75,14.81-1.11,15.52a2,2,0,0,1-2,1,2.33,2.33,0,0,1-1.93-.75c-.52-.63-3.83-6-6.16-10.06-1.26-2.21-2.37-4.11-2.49-4.23-.27-.31-.71-.35-.83,0,0,.12-.08,2.45-.08,5.14,0,5.44-.23,13.3-.43,15.83s-.67,3.19-2.21,3.27c-.87.08-1,0-1.42-.35A1.15,1.15,0,0,1,117.56,337.06Z"/><path d="M142.23,324.55c-.28-6.83,1.74-15.6,4.82-21a8.27,8.27,0,0,1,3.47-3.48,6.41,6.41,0,0,1,3.63,0,5.36,5.36,0,0,1,3,3.2,17.83,17.83,0,0,1,1,5c0,.83,0,1-.36,1.31s-.51.35-1.18.35c-1.62,0-2.37-.71-2.65-2.49-.35-2.21-.63-3.31-.94-3.71s-.36-.35-.71-.19c-1.27.59-4,7.3-5,12.11a32.67,32.67,0,0,0-.79,8.1c0,3.75.08,4.85,1,7.26,2.57,7.22,5,.83,6.28-3.24.63-1.93,1-2.56-.64-2.37-2.21.28-2.72.28-3.19,0a2.11,2.11,0,0,1-.95-1.93c.24-.95.95-1.3,4.38-2.09,4.46-1,5.88-1,6.44.43.31.71.27,1.15-.28,2.49-.28.67-.91,2.57-1.46,4.18-1.07,3.32-1.86,5.14-2.84,6.44a6.76,6.76,0,0,1-2.81,2.13,9.83,9.83,0,0,1-3.59.24C144.91,336.74,142.55,332.17,142.23,324.55Z"/><path d="M180.71,332.17a2,2,0,0,1-1.54.55,2.29,2.29,0,0,1-1.73-.63c-.44-.52-.56-.87-1.23-4.35-.51-2.84-.75-3.31-1.42-3.39a19.92,19.92,0,0,0-4.66,1.54,2,2,0,0,0-.67.71,34.86,34.86,0,0,0-.83,5c-.27,2.49-.59,4.66-.63,4.78a1.67,1.67,0,0,1-.51.63c-.39.32-.59.36-1.42.36a2.37,2.37,0,0,1-1.38-.28c-.79-.51-1-1.22-.79-3,.63-6,2.21-16.82,3.2-22,.86-4.73,2.4-10.85,3-12.12.44-.94,1.39-1.3,2.89-1.06a4.06,4.06,0,0,1,2.52,1.3c.71,1.07,1.38,4,2.41,11,.91,6.08,2.49,15.95,2.84,17.81C181.15,331.06,181.15,331.69,180.71,332.17Zm-6.15-13.23c0-1-1.27-9.27-1.5-9.87-.12-.31-.24-.47-.4-.47-.47,0-1,2.21-1.89,7.58-.75,4.38-.75,4.46-.48,4.89a.6.6,0,0,0,.56.32,4.83,4.83,0,0,0,1.61-.44C174.12,320.4,174.56,319.93,174.56,318.94Z"/><path d="M201,327.67a3,3,0,0,1-1.82,0,9.41,9.41,0,0,1-1.22-1c-2.37-2.05-5.61-4.46-6-4.46a.64.64,0,0,0-.44.23c-.27.28-.31,3.95,0,11.06.16,5.37.16,5.37-.71,5.76a3.53,3.53,0,0,1-2.4,0c-.91-.51-1-1.3-1.23-9.35-.07-3.24-.19-7.23-.23-8.85s-.12-3.43-.12-4,0-4.66-.12-9.16c-.12-8.92-.12-8.8.75-9.36a14.72,14.72,0,0,1,4.1-1c4.11-.56,8.45.67,9.44,5.21a9.81,9.81,0,0,1-1.54,7,24.89,24.89,0,0,1-4.07,5c-2.84,2.88-2.84,2.76.2,5.05,3.87,2.88,5.8,4.66,6.12,5.49A2,2,0,0,1,201,327.67Zm-5-20.14c4-6.71-3.11-8-4.65-5.8l-.32.51,0,4.7c0,4.94.08,5.17.71,5.17a2.28,2.28,0,0,0,.91-.59A23.4,23.4,0,0,0,196,307.53Z"/><path d="M219.39,326c-1.81,3.75-4.46,7-6.59,8.13a10.59,10.59,0,0,1-5.09,1.18,1.58,1.58,0,0,1-1.39-1c-.23-.48-.27-1-.35-5.57,0-6.24.24-25.78.43-27s.52-1.46,1.74-1.58c5.92-.55,11.21-.79,13.86,6C223.77,310.85,222.71,319.18,219.39,326Zm-.63-16.74c-.36-5.68-7.5-7.46-7.94-3.67-.39,3.43-.67,23.88-.39,24.36s.67.39,1.38-.36C215.92,325.34,219.15,315.35,218.76,309.23Z"/><path d="M228,306.39c-.59-.47-.71-1.3-.63-4.62.08-3.79.12-4.11.79-5a2.44,2.44,0,0,1,1-.95,1.7,1.7,0,0,1,2.29,1.06c.11.68,0,7.27-.08,7.94a3,3,0,0,1-1.58,1.85A1.79,1.79,0,0,1,228,306.39Z"/><path d="M238.85,334.46c.08-.32.63-.87,1.73-1.86,3.95-3.36,8.13-8.57,8.13-10.93,0-4.27-11.17-4.62-13.93-10.54-1.22-2.61-.47-5.33,2.29-8.21,2.29-2.37,5.17-4.31,8.57-4.31a4.07,4.07,0,0,1,2.21.48c2.33,1.65-.6,3.31-2.25,3.59-2.25.39-5.92,3.71-6.87,5.76-2.33,4.86,13.89,3.75,13.85,14.05,0,2.1-.55,3.52-2.37,6.28-1.26,1.9-6.43,8.53-9,8.53A2.65,2.65,0,0,1,240,337,2.14,2.14,0,0,1,238.85,334.46Z"/><path d="M80.74,381.82c.08-.32.63-.87,1.74-1.86,4-3.35,8.13-8.57,8.13-10.93,0-4.27-11.17-4.62-13.93-10.54-1.23-2.61-.48-5.33,2.29-8.21,2.29-2.37,5.17-4.31,8.56-4.31a4,4,0,0,1,2.21.48c2.33,1.65-.59,3.31-2.25,3.59-2.25.39-5.92,3.71-6.87,5.76-2.33,4.86,13.9,3.75,13.86,14.06,0,2.09-.55,3.51-2.37,6.27-1.26,1.9-6.43,8.53-9,8.53a2.61,2.61,0,0,1-1.18-.32A2.16,2.16,0,0,1,80.74,381.82Z"/><path d="M110.15,383c-.32-.63-.36-2.33-.08-8.17s.31-5.72-3.12-5.33c-1.11.12-2.25.32-2.53.39-.83.32-.87.52-.87,5.41,0,3.71,0,4.5-.23,4.9-.28.59-.87.87-1.9.83-1.3,0-1.81-.6-2-2.29,0-.48-.16-5.57-.24-11.29S99,355.29,99,353.24c-.12-4.23,0-4.66.75-5.14a3.08,3.08,0,0,1,2.68,0c1,.64.91.36,1,9.24l.08,8,.35.36c.28.32.47.39,1.15.39a17.35,17.35,0,0,0,4.69-.67c.83-.51.91-.86,1.23-6.55.31-6.16.71-10.5.94-10.93.32-.67.79-.91,1.82-.91s1.78.31,2.09,1,.24,1-.39,8.76c-.63,8-1.07,15.2-1.23,21.47-.11,3.79-.19,4.5-.79,5.06-.35.35-.59.43-1.34.47a3.51,3.51,0,0,1-1.26-.12A1.76,1.76,0,0,1,110.15,383Z"/><path d="M140.14,365.28c0,6.08-1.62,17.44-9.67,17.44-8.33,0-8.76-12.15-8.76-18.11,0-3.28.35-10.62,1.89-13.39a6.58,6.58,0,0,1,6-3.63C138,347.59,140.14,358.72,140.14,365.28Zm-8.41,13.93c2.93-3.08,3.79-9.43,3.79-13.54,0-3.24-.9-14.76-5.21-14.76-3.94,0-4,12-4,14.8,0,2.53.75,14.25,4.1,14.25A1.77,1.77,0,0,0,131.73,379.21Z"/><path d="M160.9,351.58a12.91,12.91,0,0,1-1.42,5.76,97.09,97.09,0,0,1-7.93,13.34,22.2,22.2,0,0,0-1.94,3.16,44,44,0,0,0-.12,5.92l0,5.37-.39.4A2.48,2.48,0,0,1,147,386c-1.19-.2-1.62-.87-1.78-2.72-.08-.6-.12-7.15-.16-14.57s-.12-14.8-.19-16.42c-.24-4.38-.24-5.8,0-6.16a2.13,2.13,0,0,1,1.61-.83c.36-.08,1.47-.27,2.45-.47a15.19,15.19,0,0,1,3.95-.4C157.43,344.43,160.9,346.6,160.9,351.58Zm-11.45-2.65c-.27.4-.27.67-.11,4.74,0,1.19.11,12,.79,11.29s3.63-5.92,4.89-8.29C160.9,345.66,150.32,347.39,149.45,348.93Z"/><path d="M181,351.58a12.91,12.91,0,0,1-1.42,5.76,96.32,96.32,0,0,1-7.94,13.34,22.77,22.77,0,0,0-1.93,3.16,44,44,0,0,0-.12,5.92l0,5.37-.39.4a2.48,2.48,0,0,1-2.13.47c-1.19-.2-1.62-.87-1.78-2.72-.08-.6-.12-7.15-.16-14.57s-.12-14.8-.2-16.42c-.23-4.38-.23-5.8,0-6.16a2.16,2.16,0,0,1,1.62-.83c.36-.08,1.46-.27,2.45-.47a15.19,15.19,0,0,1,3.95-.4C177.52,344.43,181,346.6,181,351.58Zm-11.45-2.65c-.27.4-.27.67-.12,4.74,0,1.19.12,12,.79,11.29s3.64-5.92,4.9-8.29C181,345.66,170.41,347.39,169.54,348.93Z"/><path d="M185,380.55c-.27-2.13-.12-9.91.4-24.23.23-6,.27-6.12,1.06-6.4a3.91,3.91,0,0,1,2.21.24c1.19.59,1.35,1.58,1,7.18-.31,5.33-.59,15.16-.59,21.59a20.72,20.72,0,0,1-.12,3c-.16.56-1,.83-1.74.83C185.8,382.76,185.13,381.89,185,380.55Z"/><path d="M196.89,384.42c0-.35,0-4.22.08-8.6.12-8,0-16.11-.39-21.83-.16-3.16-.12-3.52.63-3.91a2.8,2.8,0,0,1,1.42-.28,2.91,2.91,0,0,1,1.1.16c1.07.39,2,1.78,4.54,6.4s5.45,9.78,5.92,10.26.44.39.64.16c.67-.67.94-13.23.94-14.81,0-2.21.12-2.8.75-3.15a2.56,2.56,0,0,1,1.23-.32,2.72,2.72,0,0,1,2.37,1.18c.19.44.23.79.11,3.36-.07,1.58-.19,4.78-.27,7.07-.4,9.59-.75,14.8-1.11,15.51a2,2,0,0,1-2,1,2.36,2.36,0,0,1-1.94-.75c-.51-.63-3.82-6-6.15-10.06-1.27-2.21-2.37-4.11-2.49-4.22-.28-.32-.71-.36-.83,0,0,.11-.08,2.44-.08,5.13,0,5.44-.23,13.3-.43,15.83s-.67,3.19-2.21,3.27c-.87.08-1,0-1.42-.35A1.15,1.15,0,0,1,196.89,384.42Z"/><path d="M221.56,371.91c-.28-6.83,1.74-15.59,4.81-21a8.34,8.34,0,0,1,3.48-3.48,6.41,6.41,0,0,1,3.63,0,5.39,5.39,0,0,1,3,3.2,17.83,17.83,0,0,1,1,5c0,.83,0,1-.36,1.31s-.51.35-1.18.35c-1.62,0-2.37-.71-2.65-2.48-.35-2.22-.63-3.32-.95-3.72s-.35-.35-.71-.19c-1.26.59-4,7.3-5,12.12a32.59,32.59,0,0,0-.79,8.09c0,3.75.08,4.85.95,7.26,2.56,7.23,5,.83,6.27-3.24.64-1.93,1-2.56-.63-2.36-2.21.27-2.72.27-3.19,0a2.13,2.13,0,0,1-1-1.94c.24-.95,1-1.3,4.38-2.09,4.46-1,5.88-.95,6.43.43.32.71.28,1.15-.27,2.49-.28.67-.91,2.57-1.46,4.18-1.07,3.32-1.86,5.14-2.84,6.44a6.76,6.76,0,0,1-2.81,2.13,9.61,9.61,0,0,1-3.59.24C224.24,384.11,221.87,379.53,221.56,371.91Z"/><path d="M129.84,430.76c-.32-.68-.36-.91-.67-8.89-.28-6.27-.36-10.54-.36-18.15,0-9.79,0-10,.24-10.31a2.11,2.11,0,0,1,1.46-.43,2.87,2.87,0,0,1,1.54.39c1.06.67,1.1,1.38,1.14,13.19,0,5.68.08,11.37.48,17,.12,2.45.27,3,.91,3a9.33,9.33,0,0,0,2.09-.83c3.35-1.58,4.5-1.89,5.8-1.66A1.79,1.79,0,0,1,144,425.7c0,.71-.28,1.07-1.11,1.46l-5.29,2.53c-4.46,2.13-4.73,2.25-5.56,2.25A2.15,2.15,0,0,1,129.84,430.76Z"/><path d="M146.93,427.91c-.28-2.13-.12-9.9.39-24.23.24-6,.28-6.12,1.07-6.4a3.92,3.92,0,0,1,2.21.24c1.18.59,1.34,1.58,1,7.18-.31,5.33-.59,15.16-.59,21.59a20.62,20.62,0,0,1-.12,3c-.15.56-.94.83-1.73.83A2.08,2.08,0,0,1,146.93,427.91Z"/><path d="M160.54,429.18c.08-.32.64-.87,1.74-1.86,3.95-3.35,8.13-8.56,8.13-10.93,0-4.27-11.17-4.62-13.93-10.54-1.23-2.61-.48-5.33,2.29-8.21,2.29-2.37,5.17-4.31,8.56-4.31a4,4,0,0,1,2.21.48c2.33,1.65-.59,3.31-2.25,3.59-2.25.39-5.92,3.71-6.86,5.76-2.33,4.86,13.89,3.75,13.85,14.06,0,2.09-.55,3.51-2.37,6.27-1.26,1.9-6.43,8.53-9,8.53a2.61,2.61,0,0,1-1.18-.32A2.16,2.16,0,0,1,160.54,429.18Z"/><path d="M180.91,429.49c-.28-.67-.43-6.35-.59-20-.12-6.59-.2-10.78-.28-11-.35-.9-.67-.9-2.68,0s-3.48.79-4.15-.31a2.13,2.13,0,0,1,0-2c.32-.6.87-.79,6-2.57,11.41-3.95,14.84-4.5,15.59-2.53a1.29,1.29,0,0,1-.27,1.54,8,8,0,0,1-2.09.71,55.63,55.63,0,0,0-7,2.21c-.95.56-1,.83-.83,4.43.08,1.69.16,6,.16,9.47s.08,9.24.2,12.83c.19,6.2.15,7.1-.2,7.78s-1.5.86-2.53.67A1.89,1.89,0,0,1,180.91,429.49Z"/><path class="cls-1" d="M150.87,550.61c-10.9,6.2-24.38,10.74-41.51,11.67-30.31,1.65-48.92-10.75-56.84-17.67l-4.47-4.45c-5-8.64-7.92-19.54-12.43-39.25-5.82-25.39-7.09-25.55-9.4-37.85s-2.73-29.21-2.2-43.4-.28-33.11-.28-33.11l1.1-.39a45.29,45.29,0,0,1,0-8.54C26,368.68,8.55,348.28,3.65,336S1.19,309.72,6.6,313s14.11,26.46,17,34.6,4.09,18.69,8,12.7,4.6-24.7,5.13-38.9c.52-13.89,8.53-8.82,15.67-9.54v60.61a34.56,34.56,0,0,0-1,5.95,14.22,14.22,0,0,0,1,6.16c2.34,5.74,8.8,9.53,19.1,9.38,13.64-.19,41.43-29.69,43.83-33.27s15,14.26,12,22.3S95.08,401.56,92,405.53s-19.39,7.05-13.47,14a.51.51,0,0,1,.18.18c6.36,6.5,38.33-6.93,41.89-9.69s11.63,5.39,13,10.1-4.48,4.61-11.27,7-15.43,9-30.53,15.53a19.79,19.79,0,0,1-11.56,1.44c0,2.71,0,5.48,0,8.19C86,467.63,95.31,491,102.08,503.62c.44.82.87,1.6,1.29,2.32,2.33,4,10,11.5,19.08,19.69"/><path class="cls-4" d="M206.1,494.17c.27,4.38-9.9,39.13-12.3,44.15"/></g></g></svg>